<mxfile host="app.diagrams.net" agent="Mozilla/5.0 (Windows NT 10.0; Win64; x64) AppleWebKit/537.36 (KHTML, like Gecko) Chrome/128.0.0.0 Safari/537.36" version="24.7.12">
  <diagram id="C5RBs43oDa-KdzZeNtuy" name="Page-1">
    <mxGraphModel dx="1050" dy="522" grid="1" gridSize="10" guides="1" tooltips="1" connect="1" arrows="1" fold="1" page="1" pageScale="1" pageWidth="827" pageHeight="1169" math="0" shadow="0">
      <root>
        <mxCell id="WIyWlLk6GJQsqaUBKTNV-0" />
        <mxCell id="WIyWlLk6GJQsqaUBKTNV-1" parent="WIyWlLk6GJQsqaUBKTNV-0" />
        <mxCell id="yRmc8YcTjv6HQ2VlwHG2-0" value="&lt;span style=&quot;font-size: 30px;&quot;&gt;&lt;b&gt;Analisi dell&#39;applicazione&lt;/b&gt;&lt;/span&gt;" style="text;html=1;align=center;verticalAlign=middle;whiteSpace=wrap;rounded=0;" parent="WIyWlLk6GJQsqaUBKTNV-1" vertex="1">
          <mxGeometry x="30" y="40" width="370" height="50" as="geometry" />
        </mxCell>
        <mxCell id="yRmc8YcTjv6HQ2VlwHG2-1" value="&lt;h1 style=&quot;margin-top: 0px;&quot;&gt;Richieste del cliente:&lt;/h1&gt;&lt;div&gt;&lt;ul&gt;&lt;li&gt;&lt;font style=&quot;font-size: 14px;&quot; face=&quot;Comic Sans MS&quot;&gt;Importare nel database, come&lt;br&gt;caricamento iniziale, i dati di tutte le carte esistenti (verrà fornito un file .csv)&lt;/font&gt;&lt;/li&gt;&lt;li&gt;&lt;font style=&quot;font-size: 14px;&quot; face=&quot;Comic Sans MS&quot;&gt;Ricercare sul database le carte in base a dei filtri&lt;/font&gt;&lt;/li&gt;&lt;li&gt;&lt;span style=&quot;line-height: 115%; background: white;&quot; lang=&quot;FR&quot;&gt;&lt;font style=&quot;font-size: 14px;&quot; face=&quot;Comic Sans MS&quot;&gt;&lt;span style=&quot;line-height: 115%; background-image: initial; background-position: initial; background-size: initial; background-repeat: initial; background-attachment: initial; background-origin: initial; background-clip: initial;&quot; lang=&quot;FR&quot;&gt;Registrare degli utenti&lt;/span&gt;&lt;br&gt;&lt;/font&gt;&lt;/span&gt;&lt;/li&gt;&lt;li&gt;&lt;font style=&quot;font-size: 14px;&quot; face=&quot;Comic Sans MS&quot;&gt;&lt;span style=&quot;line-height: 115%; background: white;&quot; lang=&quot;FR&quot;&gt;&lt;span style=&quot;line-height: 115%; background-image: initial; background-position: initial; background-size: initial; background-repeat: initial; background-attachment: initial; background-origin: initial; background-clip: initial;&quot; lang=&quot;FR&quot;&gt;&lt;span style=&quot;line-height: 115%; background-image: initial; background-position: initial; background-size: initial; background-repeat: initial; background-attachment: initial; background-origin: initial; background-clip: initial;&quot; lang=&quot;FR&quot;&gt;Area personale che permetta di &lt;/span&gt;&lt;span style=&quot;line-height: 115%; background-image: initial; background-position: initial; background-size: initial; background-repeat: initial; background-attachment: initial; background-origin: initial; background-clip: initial;&quot; lang=&quot;FR&quot;&gt;:&amp;nbsp; -&amp;nbsp;&lt;span style=&quot;line-height: 115%; background-image: initial; background-position: initial; background-size: initial; background-repeat: initial; background-attachment: initial; background-origin: initial; background-clip: initial;&quot; lang=&quot;FR&quot;&gt;Salvare dei mazzi&amp;nbsp; con i limiti imposti dal regolamento&amp;nbsp; &amp;nbsp; &amp;nbsp; &amp;nbsp; &amp;nbsp;&amp;nbsp;&lt;/span&gt;&amp;nbsp; &amp;nbsp; &amp;nbsp; &amp;nbsp; &amp;nbsp; &amp;nbsp; &amp;nbsp; &amp;nbsp; &amp;nbsp; &amp;nbsp; &amp;nbsp; &amp;nbsp; &amp;nbsp; &amp;nbsp; &amp;nbsp; &amp;nbsp; &amp;nbsp; &amp;nbsp; &amp;nbsp; &amp;nbsp; &amp;nbsp; &amp;nbsp; &amp;nbsp; &amp;nbsp; &amp;nbsp; &amp;nbsp; &amp;nbsp; &amp;nbsp; &amp;nbsp; &amp;nbsp; &amp;nbsp; &amp;nbsp; &amp;nbsp; &amp;nbsp; &amp;nbsp; &amp;nbsp; &amp;nbsp; &amp;nbsp;&lt;/span&gt;&lt;/span&gt;&lt;/span&gt;- Quali carte e la quantità che si possiede&lt;/font&gt;&lt;/li&gt;&lt;li&gt;&lt;span style=&quot;line-height: 115%; background: white;&quot; lang=&quot;FR&quot;&gt;&lt;font style=&quot;font-size: 14px;&quot; face=&quot;Comic Sans MS&quot;&gt;&lt;span style=&quot;line-height: 115%; background-image: initial; background-position: initial; background-size: initial; background-repeat: initial; background-attachment: initial; background-origin: initial; background-clip: initial;&quot; lang=&quot;FR&quot;&gt;L’applicazione dovrà prevedere almeno la lingua inglese oltre a quella italiana&lt;/span&gt;&lt;br&gt;&lt;/font&gt;&lt;/span&gt;&lt;/li&gt;&lt;li&gt;&lt;span style=&quot;line-height: 115%; background: white;&quot; lang=&quot;FR&quot;&gt;&lt;span style=&quot;line-height: 115%; background-image: initial; background-position: initial; background-size: initial; background-repeat: initial; background-attachment: initial; background-origin: initial; background-clip: initial;&quot; lang=&quot;FR&quot;&gt;&lt;span style=&quot;line-height: 115%; background-image: initial; background-position: initial; background-size: initial; background-repeat: initial; background-attachment: initial; background-origin: initial; background-clip: initial;&quot; lang=&quot;FR&quot;&gt;&lt;font face=&quot;Comic Sans MS&quot; style=&quot;font-size: 14px;&quot;&gt;Sviluppare l’applicazione in Java&lt;/font&gt;&lt;/span&gt;&lt;br&gt;&lt;/span&gt;&lt;/span&gt;&lt;/li&gt;&lt;li&gt;&lt;span style=&quot;line-height: 115%; background: white;&quot; lang=&quot;FR&quot;&gt;&lt;span style=&quot;line-height: 115%; background-image: initial; background-position: initial; background-size: initial; background-repeat: initial; background-attachment: initial; background-origin: initial; background-clip: initial;&quot; lang=&quot;FR&quot;&gt;&lt;span style=&quot;line-height: 115%; background-image: initial; background-position: initial; background-size: initial; background-repeat: initial; background-attachment: initial; background-origin: initial; background-clip: initial;&quot; lang=&quot;FR&quot;&gt;&lt;font style=&quot;font-size: 14px;&quot;&gt;&lt;span style=&quot;font-size: 11pt; line-height: 115%; background-image: initial; background-position: initial; background-size: initial; background-repeat: initial; background-attachment: initial; background-origin: initial; background-clip: initial;&quot; lang=&quot;FR&quot;&gt;&lt;font face=&quot;Comic Sans MS&quot;&gt;Sviluppare un’interfaccia frontend essenziale che permetta di utilizzare le funzionalità backend e mostrare l’interazione prevista tra le componenti dell’applicazione&lt;/font&gt;&lt;/span&gt;&lt;br&gt;&lt;/font&gt;&lt;/span&gt;&lt;/span&gt;&lt;/span&gt;&lt;/li&gt;&lt;/ul&gt;&lt;/div&gt;" style="text;html=1;whiteSpace=wrap;overflow=hidden;rounded=0;fillColor=#d5e8d4;strokeColor=#82b366;" parent="WIyWlLk6GJQsqaUBKTNV-1" vertex="1">
          <mxGeometry x="40" y="120" width="760" height="250" as="geometry" />
        </mxCell>
        <mxCell id="yRmc8YcTjv6HQ2VlwHG2-2" value="&lt;h1 style=&quot;margin-top: 0px;&quot;&gt;Pagine da creare:&lt;/h1&gt;&lt;div&gt;&lt;ul&gt;&lt;li&gt;&lt;font size=&quot;3&quot; face=&quot;Comic Sans MS&quot;&gt;Iscrizione&lt;/font&gt;&lt;/li&gt;&lt;li&gt;&lt;font size=&quot;3&quot; face=&quot;Comic Sans MS&quot;&gt;Accesso&lt;/font&gt;&lt;/li&gt;&lt;li&gt;&lt;font size=&quot;3&quot; face=&quot;Comic Sans MS&quot;&gt;Profilo visibile a tutti(immagine, nome utente, statistiche, posizione in classifica, carta preferita, numero di carte che si possiedono)&lt;/font&gt;&lt;/li&gt;&lt;li&gt;&lt;font size=&quot;3&quot; face=&quot;Comic Sans MS&quot;&gt;Profilo visibile solo all&#39;utente(parte visibile a tutti, collezione di carte, mazzi, impostazioni)&lt;/font&gt;&lt;/li&gt;&lt;li&gt;&lt;font size=&quot;3&quot; face=&quot;Comic Sans MS&quot;&gt;Collezione (carte che si hanno e non, filtri, barra di ricerca)&lt;/font&gt;&lt;/li&gt;&lt;li&gt;&lt;font size=&quot;3&quot; face=&quot;Comic Sans MS&quot;&gt;Mazzi costruiti/visualizzazione del mazzo&lt;/font&gt;&lt;/li&gt;&lt;li&gt;&lt;font size=&quot;3&quot; face=&quot;Comic Sans MS&quot;&gt;Creazione del mazzo (nome, carte, filtri, barra di ricerca)&lt;/font&gt;&lt;/li&gt;&lt;li&gt;&lt;font size=&quot;3&quot; face=&quot;Comic Sans MS&quot;&gt;Classifica&lt;/font&gt;&lt;/li&gt;&lt;li&gt;&lt;font size=&quot;3&quot; face=&quot;Comic Sans MS&quot;&gt;Supporto tecnico&lt;/font&gt;&lt;/li&gt;&lt;li&gt;&lt;font size=&quot;3&quot; face=&quot;Comic Sans MS&quot;&gt;Impostazioni del profilo (immagine, mail, password, nome utente)&lt;/font&gt;&lt;/li&gt;&lt;li&gt;&lt;font size=&quot;3&quot; face=&quot;Comic Sans MS&quot;&gt;Admin per le statistiche(sconfitte e vittorie)&lt;/font&gt;&lt;/li&gt;&lt;li&gt;&lt;font size=&quot;3&quot; face=&quot;Comic Sans MS&quot;&gt;Singole carte&lt;/font&gt;&lt;/li&gt;&lt;li&gt;&lt;font size=&quot;3&quot; face=&quot;Comic Sans MS&quot;&gt;Pagina eventi&lt;/font&gt;&lt;/li&gt;&lt;/ul&gt;&lt;/div&gt;" style="text;html=1;whiteSpace=wrap;overflow=hidden;rounded=0;fillColor=#d5e8d4;strokeColor=#82b366;gradientColor=none;fillStyle=auto;" parent="WIyWlLk6GJQsqaUBKTNV-1" vertex="1">
          <mxGeometry x="40" y="400" width="760" height="360" as="geometry" />
        </mxCell>
        <mxCell id="yRmc8YcTjv6HQ2VlwHG2-3" value="Iscrizione" style="swimlane;fontStyle=0;childLayout=stackLayout;horizontal=1;startSize=30;horizontalStack=0;resizeParent=1;resizeParentMax=0;resizeLast=0;collapsible=1;marginBottom=0;whiteSpace=wrap;html=1;fillColor=#ffe6cc;strokeColor=#d79b00;" parent="WIyWlLk6GJQsqaUBKTNV-1" vertex="1">
          <mxGeometry x="30" y="822" width="140" height="180" as="geometry" />
        </mxCell>
        <mxCell id="yRmc8YcTjv6HQ2VlwHG2-5" value="mail PK" style="text;strokeColor=none;fillColor=none;align=left;verticalAlign=middle;spacingLeft=4;spacingRight=4;overflow=hidden;points=[[0,0.5],[1,0.5]];portConstraint=eastwest;rotatable=0;whiteSpace=wrap;html=1;" parent="yRmc8YcTjv6HQ2VlwHG2-3" vertex="1">
          <mxGeometry y="30" width="140" height="30" as="geometry" />
        </mxCell>
        <mxCell id="yRmc8YcTjv6HQ2VlwHG2-6" value="password" style="text;strokeColor=none;fillColor=none;align=left;verticalAlign=middle;spacingLeft=4;spacingRight=4;overflow=hidden;points=[[0,0.5],[1,0.5]];portConstraint=eastwest;rotatable=0;whiteSpace=wrap;html=1;" parent="yRmc8YcTjv6HQ2VlwHG2-3" vertex="1">
          <mxGeometry y="60" width="140" height="30" as="geometry" />
        </mxCell>
        <mxCell id="yRmc8YcTjv6HQ2VlwHG2-8" value="nome utente&amp;nbsp;" style="text;strokeColor=none;fillColor=none;align=left;verticalAlign=middle;spacingLeft=4;spacingRight=4;overflow=hidden;points=[[0,0.5],[1,0.5]];portConstraint=eastwest;rotatable=0;whiteSpace=wrap;html=1;" parent="yRmc8YcTjv6HQ2VlwHG2-3" vertex="1">
          <mxGeometry y="90" width="140" height="30" as="geometry" />
        </mxCell>
        <mxCell id="yRmc8YcTjv6HQ2VlwHG2-14" value="nome" style="text;strokeColor=none;fillColor=none;align=left;verticalAlign=middle;spacingLeft=4;spacingRight=4;overflow=hidden;points=[[0,0.5],[1,0.5]];portConstraint=eastwest;rotatable=0;whiteSpace=wrap;html=1;" parent="yRmc8YcTjv6HQ2VlwHG2-3" vertex="1">
          <mxGeometry y="120" width="140" height="30" as="geometry" />
        </mxCell>
        <mxCell id="yRmc8YcTjv6HQ2VlwHG2-13" value="cognome" style="text;strokeColor=none;fillColor=none;align=left;verticalAlign=middle;spacingLeft=4;spacingRight=4;overflow=hidden;points=[[0,0.5],[1,0.5]];portConstraint=eastwest;rotatable=0;whiteSpace=wrap;html=1;" parent="yRmc8YcTjv6HQ2VlwHG2-3" vertex="1">
          <mxGeometry y="150" width="140" height="30" as="geometry" />
        </mxCell>
        <mxCell id="yRmc8YcTjv6HQ2VlwHG2-9" value="Accesso" style="swimlane;fontStyle=0;childLayout=stackLayout;horizontal=1;startSize=30;horizontalStack=0;resizeParent=1;resizeParentMax=0;resizeLast=0;collapsible=1;marginBottom=0;whiteSpace=wrap;html=1;fillColor=#ffe6cc;strokeColor=#d79b00;" parent="WIyWlLk6GJQsqaUBKTNV-1" vertex="1">
          <mxGeometry x="190" y="822" width="140" height="90" as="geometry" />
        </mxCell>
        <mxCell id="yRmc8YcTjv6HQ2VlwHG2-10" value="nome utente" style="text;strokeColor=none;fillColor=none;align=left;verticalAlign=middle;spacingLeft=4;spacingRight=4;overflow=hidden;points=[[0,0.5],[1,0.5]];portConstraint=eastwest;rotatable=0;whiteSpace=wrap;html=1;" parent="yRmc8YcTjv6HQ2VlwHG2-9" vertex="1">
          <mxGeometry y="30" width="140" height="30" as="geometry" />
        </mxCell>
        <mxCell id="yRmc8YcTjv6HQ2VlwHG2-11" value="password" style="text;strokeColor=none;fillColor=none;align=left;verticalAlign=middle;spacingLeft=4;spacingRight=4;overflow=hidden;points=[[0,0.5],[1,0.5]];portConstraint=eastwest;rotatable=0;whiteSpace=wrap;html=1;" parent="yRmc8YcTjv6HQ2VlwHG2-9" vertex="1">
          <mxGeometry y="60" width="140" height="30" as="geometry" />
        </mxCell>
        <mxCell id="yRmc8YcTjv6HQ2VlwHG2-15" value="Profilo (privato)" style="swimlane;fontStyle=0;childLayout=stackLayout;horizontal=1;startSize=30;horizontalStack=0;resizeParent=1;resizeParentMax=0;resizeLast=0;collapsible=1;marginBottom=0;whiteSpace=wrap;html=1;fillColor=#ffe6cc;strokeColor=#d79b00;" parent="WIyWlLk6GJQsqaUBKTNV-1" vertex="1">
          <mxGeometry x="350" y="822" width="140" height="180" as="geometry" />
        </mxCell>
        <mxCell id="yRmc8YcTjv6HQ2VlwHG2-16" value="collezione" style="text;strokeColor=none;fillColor=none;align=left;verticalAlign=middle;spacingLeft=4;spacingRight=4;overflow=hidden;points=[[0,0.5],[1,0.5]];portConstraint=eastwest;rotatable=0;whiteSpace=wrap;html=1;" parent="yRmc8YcTjv6HQ2VlwHG2-15" vertex="1">
          <mxGeometry y="30" width="140" height="30" as="geometry" />
        </mxCell>
        <mxCell id="yRmc8YcTjv6HQ2VlwHG2-18" value="mazzi" style="text;strokeColor=none;fillColor=none;align=left;verticalAlign=middle;spacingLeft=4;spacingRight=4;overflow=hidden;points=[[0,0.5],[1,0.5]];portConstraint=eastwest;rotatable=0;whiteSpace=wrap;html=1;" parent="yRmc8YcTjv6HQ2VlwHG2-15" vertex="1">
          <mxGeometry y="60" width="140" height="30" as="geometry" />
        </mxCell>
        <mxCell id="yRmc8YcTjv6HQ2VlwHG2-20" value="creazione mazzi" style="text;strokeColor=none;fillColor=none;align=left;verticalAlign=middle;spacingLeft=4;spacingRight=4;overflow=hidden;points=[[0,0.5],[1,0.5]];portConstraint=eastwest;rotatable=0;whiteSpace=wrap;html=1;" parent="yRmc8YcTjv6HQ2VlwHG2-15" vertex="1">
          <mxGeometry y="90" width="140" height="30" as="geometry" />
        </mxCell>
        <mxCell id="yRmc8YcTjv6HQ2VlwHG2-19" value="impostazioni" style="text;strokeColor=none;fillColor=none;align=left;verticalAlign=middle;spacingLeft=4;spacingRight=4;overflow=hidden;points=[[0,0.5],[1,0.5]];portConstraint=eastwest;rotatable=0;whiteSpace=wrap;html=1;" parent="yRmc8YcTjv6HQ2VlwHG2-15" vertex="1">
          <mxGeometry y="120" width="140" height="30" as="geometry" />
        </mxCell>
        <mxCell id="yRmc8YcTjv6HQ2VlwHG2-22" value="profilo (pubblico)" style="text;strokeColor=none;fillColor=none;align=left;verticalAlign=middle;spacingLeft=4;spacingRight=4;overflow=hidden;points=[[0,0.5],[1,0.5]];portConstraint=eastwest;rotatable=0;whiteSpace=wrap;html=1;" parent="yRmc8YcTjv6HQ2VlwHG2-15" vertex="1">
          <mxGeometry y="150" width="140" height="30" as="geometry" />
        </mxCell>
        <mxCell id="yRmc8YcTjv6HQ2VlwHG2-23" value="Profilo (pubblico)" style="swimlane;fontStyle=0;childLayout=stackLayout;horizontal=1;startSize=30;horizontalStack=0;resizeParent=1;resizeParentMax=0;resizeLast=0;collapsible=1;marginBottom=0;whiteSpace=wrap;html=1;fillColor=#f8cecc;strokeColor=#b85450;" parent="WIyWlLk6GJQsqaUBKTNV-1" vertex="1">
          <mxGeometry x="510" y="822" width="140" height="180" as="geometry" />
        </mxCell>
        <mxCell id="yRmc8YcTjv6HQ2VlwHG2-24" value="immagine profilo" style="text;strokeColor=none;fillColor=none;align=left;verticalAlign=middle;spacingLeft=4;spacingRight=4;overflow=hidden;points=[[0,0.5],[1,0.5]];portConstraint=eastwest;rotatable=0;whiteSpace=wrap;html=1;" parent="yRmc8YcTjv6HQ2VlwHG2-23" vertex="1">
          <mxGeometry y="30" width="140" height="30" as="geometry" />
        </mxCell>
        <mxCell id="yRmc8YcTjv6HQ2VlwHG2-25" value="carta preferita" style="text;strokeColor=none;fillColor=none;align=left;verticalAlign=middle;spacingLeft=4;spacingRight=4;overflow=hidden;points=[[0,0.5],[1,0.5]];portConstraint=eastwest;rotatable=0;whiteSpace=wrap;html=1;" parent="yRmc8YcTjv6HQ2VlwHG2-23" vertex="1">
          <mxGeometry y="60" width="140" height="30" as="geometry" />
        </mxCell>
        <mxCell id="yRmc8YcTjv6HQ2VlwHG2-26" value="statistiche" style="text;strokeColor=none;fillColor=none;align=left;verticalAlign=middle;spacingLeft=4;spacingRight=4;overflow=hidden;points=[[0,0.5],[1,0.5]];portConstraint=eastwest;rotatable=0;whiteSpace=wrap;html=1;" parent="yRmc8YcTjv6HQ2VlwHG2-23" vertex="1">
          <mxGeometry y="90" width="140" height="30" as="geometry" />
        </mxCell>
        <mxCell id="yRmc8YcTjv6HQ2VlwHG2-27" value="num. carte" style="text;strokeColor=none;fillColor=none;align=left;verticalAlign=middle;spacingLeft=4;spacingRight=4;overflow=hidden;points=[[0,0.5],[1,0.5]];portConstraint=eastwest;rotatable=0;whiteSpace=wrap;html=1;" parent="yRmc8YcTjv6HQ2VlwHG2-23" vertex="1">
          <mxGeometry y="120" width="140" height="30" as="geometry" />
        </mxCell>
        <mxCell id="yRmc8YcTjv6HQ2VlwHG2-28" value="posizione in classifica" style="text;strokeColor=none;fillColor=none;align=left;verticalAlign=middle;spacingLeft=4;spacingRight=4;overflow=hidden;points=[[0,0.5],[1,0.5]];portConstraint=eastwest;rotatable=0;whiteSpace=wrap;html=1;" parent="yRmc8YcTjv6HQ2VlwHG2-23" vertex="1">
          <mxGeometry y="150" width="140" height="30" as="geometry" />
        </mxCell>
        <mxCell id="yRmc8YcTjv6HQ2VlwHG2-29" value="Collezione" style="swimlane;fontStyle=0;childLayout=stackLayout;horizontal=1;startSize=30;horizontalStack=0;resizeParent=1;resizeParentMax=0;resizeLast=0;collapsible=1;marginBottom=0;whiteSpace=wrap;html=1;fillColor=#ffe6cc;strokeColor=#d79b00;" parent="WIyWlLk6GJQsqaUBKTNV-1" vertex="1">
          <mxGeometry x="670" y="822" width="140" height="120" as="geometry" />
        </mxCell>
        <mxCell id="yRmc8YcTjv6HQ2VlwHG2-30" value="filtri" style="text;strokeColor=none;fillColor=none;align=left;verticalAlign=middle;spacingLeft=4;spacingRight=4;overflow=hidden;points=[[0,0.5],[1,0.5]];portConstraint=eastwest;rotatable=0;whiteSpace=wrap;html=1;" parent="yRmc8YcTjv6HQ2VlwHG2-29" vertex="1">
          <mxGeometry y="30" width="140" height="30" as="geometry" />
        </mxCell>
        <mxCell id="yRmc8YcTjv6HQ2VlwHG2-33" value="barra di ricerca" style="text;strokeColor=none;fillColor=none;align=left;verticalAlign=middle;spacingLeft=4;spacingRight=4;overflow=hidden;points=[[0,0.5],[1,0.5]];portConstraint=eastwest;rotatable=0;whiteSpace=wrap;html=1;" parent="yRmc8YcTjv6HQ2VlwHG2-29" vertex="1">
          <mxGeometry y="60" width="140" height="30" as="geometry" />
        </mxCell>
        <mxCell id="yRmc8YcTjv6HQ2VlwHG2-34" value="elenco" style="text;strokeColor=none;fillColor=none;align=left;verticalAlign=middle;spacingLeft=4;spacingRight=4;overflow=hidden;points=[[0,0.5],[1,0.5]];portConstraint=eastwest;rotatable=0;whiteSpace=wrap;html=1;" parent="yRmc8YcTjv6HQ2VlwHG2-29" vertex="1">
          <mxGeometry y="90" width="140" height="30" as="geometry" />
        </mxCell>
        <mxCell id="PCaUW2Qrn1qXm83cvjNq-1" value="Mazzi (da creare)" style="swimlane;fontStyle=0;childLayout=stackLayout;horizontal=1;startSize=30;horizontalStack=0;resizeParent=1;resizeParentMax=0;resizeLast=0;collapsible=1;marginBottom=0;whiteSpace=wrap;html=1;fillColor=#ffe6cc;strokeColor=#d79b00;" parent="WIyWlLk6GJQsqaUBKTNV-1" vertex="1">
          <mxGeometry x="30" y="1020" width="140" height="150" as="geometry" />
        </mxCell>
        <mxCell id="PCaUW2Qrn1qXm83cvjNq-2" value="elenco" style="text;strokeColor=none;fillColor=none;align=left;verticalAlign=middle;spacingLeft=4;spacingRight=4;overflow=hidden;points=[[0,0.5],[1,0.5]];portConstraint=eastwest;rotatable=0;whiteSpace=wrap;html=1;" parent="PCaUW2Qrn1qXm83cvjNq-1" vertex="1">
          <mxGeometry y="30" width="140" height="30" as="geometry" />
        </mxCell>
        <mxCell id="PCaUW2Qrn1qXm83cvjNq-3" value="filtri" style="text;strokeColor=none;fillColor=none;align=left;verticalAlign=middle;spacingLeft=4;spacingRight=4;overflow=hidden;points=[[0,0.5],[1,0.5]];portConstraint=eastwest;rotatable=0;whiteSpace=wrap;html=1;" parent="PCaUW2Qrn1qXm83cvjNq-1" vertex="1">
          <mxGeometry y="60" width="140" height="30" as="geometry" />
        </mxCell>
        <mxCell id="PCaUW2Qrn1qXm83cvjNq-4" value="barra di ricerca" style="text;strokeColor=none;fillColor=none;align=left;verticalAlign=middle;spacingLeft=4;spacingRight=4;overflow=hidden;points=[[0,0.5],[1,0.5]];portConstraint=eastwest;rotatable=0;whiteSpace=wrap;html=1;" parent="PCaUW2Qrn1qXm83cvjNq-1" vertex="1">
          <mxGeometry y="90" width="140" height="30" as="geometry" />
        </mxCell>
        <mxCell id="PCaUW2Qrn1qXm83cvjNq-9" value="nome" style="text;strokeColor=none;fillColor=none;align=left;verticalAlign=middle;spacingLeft=4;spacingRight=4;overflow=hidden;points=[[0,0.5],[1,0.5]];portConstraint=eastwest;rotatable=0;whiteSpace=wrap;html=1;" parent="PCaUW2Qrn1qXm83cvjNq-1" vertex="1">
          <mxGeometry y="120" width="140" height="30" as="geometry" />
        </mxCell>
        <mxCell id="PCaUW2Qrn1qXm83cvjNq-5" value="Mazzi (creati)" style="swimlane;fontStyle=0;childLayout=stackLayout;horizontal=1;startSize=30;horizontalStack=0;resizeParent=1;resizeParentMax=0;resizeLast=0;collapsible=1;marginBottom=0;whiteSpace=wrap;html=1;fillColor=#ffe6cc;strokeColor=#d79b00;" parent="WIyWlLk6GJQsqaUBKTNV-1" vertex="1">
          <mxGeometry x="190" y="1020" width="140" height="90" as="geometry" />
        </mxCell>
        <mxCell id="PCaUW2Qrn1qXm83cvjNq-6" value="elenco" style="text;strokeColor=none;fillColor=none;align=left;verticalAlign=middle;spacingLeft=4;spacingRight=4;overflow=hidden;points=[[0,0.5],[1,0.5]];portConstraint=eastwest;rotatable=0;whiteSpace=wrap;html=1;" parent="PCaUW2Qrn1qXm83cvjNq-5" vertex="1">
          <mxGeometry y="30" width="140" height="30" as="geometry" />
        </mxCell>
        <mxCell id="PCaUW2Qrn1qXm83cvjNq-7" value="nome" style="text;strokeColor=none;fillColor=none;align=left;verticalAlign=middle;spacingLeft=4;spacingRight=4;overflow=hidden;points=[[0,0.5],[1,0.5]];portConstraint=eastwest;rotatable=0;whiteSpace=wrap;html=1;" parent="PCaUW2Qrn1qXm83cvjNq-5" vertex="1">
          <mxGeometry y="60" width="140" height="30" as="geometry" />
        </mxCell>
        <mxCell id="PCaUW2Qrn1qXm83cvjNq-10" value="Classifica" style="swimlane;fontStyle=0;childLayout=stackLayout;horizontal=1;startSize=30;horizontalStack=0;resizeParent=1;resizeParentMax=0;resizeLast=0;collapsible=1;marginBottom=0;whiteSpace=wrap;html=1;fillColor=#f8cecc;strokeColor=#b85450;" parent="WIyWlLk6GJQsqaUBKTNV-1" vertex="1">
          <mxGeometry x="350" y="1020" width="140" height="60" as="geometry" />
        </mxCell>
        <mxCell id="PCaUW2Qrn1qXm83cvjNq-12" value="lista utenti top 50" style="text;strokeColor=none;fillColor=none;align=left;verticalAlign=middle;spacingLeft=4;spacingRight=4;overflow=hidden;points=[[0,0.5],[1,0.5]];portConstraint=eastwest;rotatable=0;whiteSpace=wrap;html=1;" parent="PCaUW2Qrn1qXm83cvjNq-10" vertex="1">
          <mxGeometry y="30" width="140" height="30" as="geometry" />
        </mxCell>
        <mxCell id="PCaUW2Qrn1qXm83cvjNq-18" value="Supporto tecnico" style="swimlane;fontStyle=0;childLayout=stackLayout;horizontal=1;startSize=30;horizontalStack=0;resizeParent=1;resizeParentMax=0;resizeLast=0;collapsible=1;marginBottom=0;whiteSpace=wrap;html=1;fillColor=#f8cecc;strokeColor=#b85450;" parent="WIyWlLk6GJQsqaUBKTNV-1" vertex="1">
          <mxGeometry x="510" y="1020" width="140" height="60" as="geometry" />
        </mxCell>
        <mxCell id="PCaUW2Qrn1qXm83cvjNq-19" value="form&amp;nbsp;" style="text;strokeColor=none;fillColor=none;align=left;verticalAlign=middle;spacingLeft=4;spacingRight=4;overflow=hidden;points=[[0,0.5],[1,0.5]];portConstraint=eastwest;rotatable=0;whiteSpace=wrap;html=1;" parent="PCaUW2Qrn1qXm83cvjNq-18" vertex="1">
          <mxGeometry y="30" width="140" height="30" as="geometry" />
        </mxCell>
        <mxCell id="PCaUW2Qrn1qXm83cvjNq-22" value="Impostazioni profilo" style="swimlane;fontStyle=0;childLayout=stackLayout;horizontal=1;startSize=30;horizontalStack=0;resizeParent=1;resizeParentMax=0;resizeLast=0;collapsible=1;marginBottom=0;whiteSpace=wrap;html=1;fillColor=#f8cecc;strokeColor=#b85450;" parent="WIyWlLk6GJQsqaUBKTNV-1" vertex="1">
          <mxGeometry x="670" y="1020" width="140" height="180" as="geometry" />
        </mxCell>
        <mxCell id="PCaUW2Qrn1qXm83cvjNq-23" value="immagine" style="text;strokeColor=none;fillColor=none;align=left;verticalAlign=middle;spacingLeft=4;spacingRight=4;overflow=hidden;points=[[0,0.5],[1,0.5]];portConstraint=eastwest;rotatable=0;whiteSpace=wrap;html=1;" parent="PCaUW2Qrn1qXm83cvjNq-22" vertex="1">
          <mxGeometry y="30" width="140" height="30" as="geometry" />
        </mxCell>
        <mxCell id="PCaUW2Qrn1qXm83cvjNq-24" value="mail" style="text;strokeColor=none;fillColor=none;align=left;verticalAlign=middle;spacingLeft=4;spacingRight=4;overflow=hidden;points=[[0,0.5],[1,0.5]];portConstraint=eastwest;rotatable=0;whiteSpace=wrap;html=1;" parent="PCaUW2Qrn1qXm83cvjNq-22" vertex="1">
          <mxGeometry y="60" width="140" height="30" as="geometry" />
        </mxCell>
        <mxCell id="PCaUW2Qrn1qXm83cvjNq-25" value="password" style="text;strokeColor=none;fillColor=none;align=left;verticalAlign=middle;spacingLeft=4;spacingRight=4;overflow=hidden;points=[[0,0.5],[1,0.5]];portConstraint=eastwest;rotatable=0;whiteSpace=wrap;html=1;" parent="PCaUW2Qrn1qXm83cvjNq-22" vertex="1">
          <mxGeometry y="90" width="140" height="30" as="geometry" />
        </mxCell>
        <mxCell id="PCaUW2Qrn1qXm83cvjNq-26" value="nome utente" style="text;strokeColor=none;fillColor=none;align=left;verticalAlign=middle;spacingLeft=4;spacingRight=4;overflow=hidden;points=[[0,0.5],[1,0.5]];portConstraint=eastwest;rotatable=0;whiteSpace=wrap;html=1;" parent="PCaUW2Qrn1qXm83cvjNq-22" vertex="1">
          <mxGeometry y="120" width="140" height="30" as="geometry" />
        </mxCell>
        <mxCell id="PCaUW2Qrn1qXm83cvjNq-27" value="carta preferita" style="text;strokeColor=none;fillColor=none;align=left;verticalAlign=middle;spacingLeft=4;spacingRight=4;overflow=hidden;points=[[0,0.5],[1,0.5]];portConstraint=eastwest;rotatable=0;whiteSpace=wrap;html=1;" parent="PCaUW2Qrn1qXm83cvjNq-22" vertex="1">
          <mxGeometry y="150" width="140" height="30" as="geometry" />
        </mxCell>
        <mxCell id="PCaUW2Qrn1qXm83cvjNq-32" value="Admin" style="swimlane;fontStyle=0;childLayout=stackLayout;horizontal=1;startSize=30;horizontalStack=0;resizeParent=1;resizeParentMax=0;resizeLast=0;collapsible=1;marginBottom=0;whiteSpace=wrap;html=1;fillColor=#f8cecc;strokeColor=#b85450;" parent="WIyWlLk6GJQsqaUBKTNV-1" vertex="1">
          <mxGeometry x="30" y="1190" width="140" height="60" as="geometry" />
        </mxCell>
        <mxCell id="PCaUW2Qrn1qXm83cvjNq-36" value="Singole carte" style="swimlane;fontStyle=0;childLayout=stackLayout;horizontal=1;startSize=30;horizontalStack=0;resizeParent=1;resizeParentMax=0;resizeLast=0;collapsible=1;marginBottom=0;whiteSpace=wrap;html=1;fillColor=#ffe6cc;strokeColor=#d79b00;" parent="WIyWlLk6GJQsqaUBKTNV-1" vertex="1">
          <mxGeometry x="190" y="1190" width="140" height="90" as="geometry" />
        </mxCell>
        <mxCell id="PCaUW2Qrn1qXm83cvjNq-37" value="immagine" style="text;strokeColor=none;fillColor=none;align=left;verticalAlign=middle;spacingLeft=4;spacingRight=4;overflow=hidden;points=[[0,0.5],[1,0.5]];portConstraint=eastwest;rotatable=0;whiteSpace=wrap;html=1;" parent="PCaUW2Qrn1qXm83cvjNq-36" vertex="1">
          <mxGeometry y="30" width="140" height="30" as="geometry" />
        </mxCell>
        <mxCell id="PCaUW2Qrn1qXm83cvjNq-38" value="scheda carta" style="text;strokeColor=none;fillColor=none;align=left;verticalAlign=middle;spacingLeft=4;spacingRight=4;overflow=hidden;points=[[0,0.5],[1,0.5]];portConstraint=eastwest;rotatable=0;whiteSpace=wrap;html=1;" parent="PCaUW2Qrn1qXm83cvjNq-36" vertex="1">
          <mxGeometry y="60" width="140" height="30" as="geometry" />
        </mxCell>
        <mxCell id="PCaUW2Qrn1qXm83cvjNq-42" value="&lt;h1 style=&quot;margin-top: 0px;&quot;&gt;Legenda colori:&lt;/h1&gt;&lt;div style=&quot;font-size: 16px;&quot;&gt;&lt;font style=&quot;font-size: 16px;&quot; face=&quot;Comic Sans MS&quot;&gt;-&lt;font style=&quot;font-size: 16px;&quot;&gt; &lt;font style=&quot;font-size: 16px;&quot;&gt;a&lt;/font&gt;rancione = obbligatorio&lt;/font&gt;&lt;/font&gt;&lt;/div&gt;&lt;div style=&quot;font-size: 16px;&quot;&gt;&lt;font face=&quot;Comic Sans MS&quot; style=&quot;font-size: 16px;&quot;&gt;- rosso = idee in più&lt;/font&gt;&lt;/div&gt;" style="text;html=1;whiteSpace=wrap;overflow=hidden;rounded=0;fillColor=#d5e8d4;strokeColor=#82b366;" parent="WIyWlLk6GJQsqaUBKTNV-1" vertex="1">
          <mxGeometry x="40" y="1320" width="270" height="120" as="geometry" />
        </mxCell>
        <mxCell id="uFrT7Se5GcDD3h2U8uRo-0" value="&lt;h1 style=&quot;margin-top: 0px;&quot;&gt;Programmi che useremo:&lt;/h1&gt;&lt;div style=&quot;font-size: 16px;&quot;&gt;&lt;font face=&quot;Comic Sans MS&quot; style=&quot;font-size: 16px;&quot;&gt;- Java&lt;/font&gt;&lt;/div&gt;&lt;div style=&quot;font-size: 16px;&quot;&gt;&lt;font face=&quot;Comic Sans MS&quot; style=&quot;font-size: 16px;&quot;&gt;- Php&lt;/font&gt;&lt;/div&gt;&lt;div style=&quot;font-size: 16px;&quot;&gt;&lt;font face=&quot;Comic Sans MS&quot; style=&quot;font-size: 16px;&quot;&gt;- Bootstrap (css, html)&lt;/font&gt;&lt;/div&gt;&lt;div style=&quot;font-size: 16px;&quot;&gt;&lt;font face=&quot;Comic Sans MS&quot; style=&quot;font-size: 16px;&quot;&gt;- Javascript&lt;/font&gt;&lt;/div&gt;" style="text;html=1;whiteSpace=wrap;overflow=hidden;rounded=0;fillColor=#d5e8d4;strokeColor=#82b366;" parent="WIyWlLk6GJQsqaUBKTNV-1" vertex="1">
          <mxGeometry x="40" y="1460" width="310" height="140" as="geometry" />
        </mxCell>
        <mxCell id="uFrT7Se5GcDD3h2U8uRo-1" value="Eventi" style="swimlane;fontStyle=0;childLayout=stackLayout;horizontal=1;startSize=30;horizontalStack=0;resizeParent=1;resizeParentMax=0;resizeLast=0;collapsible=1;marginBottom=0;whiteSpace=wrap;html=1;fillColor=#f8cecc;strokeColor=#b85450;" parent="WIyWlLk6GJQsqaUBKTNV-1" vertex="1">
          <mxGeometry x="350" y="1190" width="140" height="60" as="geometry" />
        </mxCell>
        <mxCell id="uFrT7Se5GcDD3h2U8uRo-2" value="post" style="text;strokeColor=none;fillColor=none;align=left;verticalAlign=middle;spacingLeft=4;spacingRight=4;overflow=hidden;points=[[0,0.5],[1,0.5]];portConstraint=eastwest;rotatable=0;whiteSpace=wrap;html=1;" parent="uFrT7Se5GcDD3h2U8uRo-1" vertex="1">
          <mxGeometry y="30" width="140" height="30" as="geometry" />
        </mxCell>
        <mxCell id="grUhMkJ9xq8ZXCFmjBgn-2" value="&lt;h1 style=&quot;margin-top: 0px;&quot;&gt;&lt;font style=&quot;font-size: 30px;&quot;&gt;Slide presentazione&amp;nbsp;&lt;/font&gt;&lt;/h1&gt;" style="text;html=1;whiteSpace=wrap;overflow=hidden;rounded=0;" vertex="1" parent="WIyWlLk6GJQsqaUBKTNV-1">
          <mxGeometry x="40" y="1640" width="360" height="40" as="geometry" />
        </mxCell>
        <mxCell id="grUhMkJ9xq8ZXCFmjBgn-3" value="&lt;h1 style=&quot;margin-top: 0px;&quot;&gt;Slide n1: Presentazione del gruppo&lt;/h1&gt;&lt;div style=&quot;font-size: 16px;&quot;&gt;&lt;br&gt;&lt;/div&gt;" style="text;html=1;whiteSpace=wrap;overflow=hidden;rounded=0;fillColor=#dae8fc;strokeColor=#6c8ebf;" vertex="1" parent="WIyWlLk6GJQsqaUBKTNV-1">
          <mxGeometry x="40" y="1700" width="760" height="180" as="geometry" />
        </mxCell>
        <mxCell id="grUhMkJ9xq8ZXCFmjBgn-4" value="&lt;h1 style=&quot;margin-top: 0px;&quot;&gt;Slide n2: Richieste del cliente e come soddisfarle&lt;/h1&gt;&lt;div style=&quot;font-size: 16px;&quot;&gt;&lt;br&gt;&lt;/div&gt;" style="text;html=1;whiteSpace=wrap;overflow=hidden;rounded=0;fillColor=#dae8fc;strokeColor=#6c8ebf;" vertex="1" parent="WIyWlLk6GJQsqaUBKTNV-1">
          <mxGeometry x="40" y="1910" width="760" height="190" as="geometry" />
        </mxCell>
        <mxCell id="grUhMkJ9xq8ZXCFmjBgn-5" value="&lt;h1 style=&quot;margin-top: 0px;&quot;&gt;Slide n3: Visione improntata sulle carte o sugli utenti?&lt;/h1&gt;&lt;div style=&quot;font-size: 16px;&quot;&gt;&lt;span style=&quot;color: rgba(0, 0, 0, 0); font-family: monospace; font-size: 0px; text-wrap: nowrap;&quot;&gt;%3CmxGraphModel%3E%3Croot%3E%3CmxCell%20id%3D%220%22%2F%3E%3CmxCell%20id%3D%221%22%20parent%3D%220%22%2F%3E%3CmxCell%20id%3D%222%22%20value%3D%22%26lt%3Bh1%20style%3D%26quot%3Bmargin-top%3A%200px%3B%26quot%3B%26gt%3BSlide%20n1%3A%26lt%3B%2Fh1%26gt%3B%26lt%3Bdiv%20style%3D%26quot%3Bfont-size%3A%2016px%3B%26quot%3B%26gt%3B%26lt%3Bbr%26gt%3B%26lt%3B%2Fdiv%26gt%3B%22%20style%3D%22text%3Bhtml%3D1%3BwhiteSpace%3Dwrap%3Boverflow%3Dhidden%3Brounded%3D0%3BfillColor%3D%23dae8fc%3BstrokeColor%3D%236c8ebf%3B%22%20vertex%3D%221%22%20parent%3D%221%22%3E%3CmxGeometry%20x%3D%2240%22%20y%3D%221700%22%20width%3D%22760%22%20height%3D%22180%22%20as%3D%22geometry%22%2F%3E%3C%2FmxCell%3E%3C%2Froot%3E%3C%2FmxGraphModel%3E&lt;/span&gt;&lt;span style=&quot;color: rgba(0, 0, 0, 0); font-family: monospace; font-size: 0px; text-wrap: nowrap; background-color: initial;&quot;&gt;%3CmxGraphModel%3E%3Croot%3E%3CmxCell%20id%3D%220%22%2F%3E%3CmxCell%20id%3D%221%22%20parent%3D%220%22%2F%3E%3CmxCell%20id%3D%222%22%20value%3D%22%26lt%3Bh1%20style%3D%26quot%3Bmargin-top%3A%200px%3B%26quot%3B%26gt%3BSlide%20n1%3A%26lt%3B%2Fh1%26gt%3B%26lt%3Bdiv%20style%3D%26quot%3Bfont-size%3A%2016px%3B%26quot%3B%26gt%3B%26lt%3Bbr%26gt%3B%26lt%3B%2Fdiv%26gt%3B%22%20style%3D%22text%3Bhtml%3D1%3BwhiteSpace%3Dwrap%3Boverflow%3Dhidden%3Brounded%3D0%3BfillColor%3D%23dae8fc%3BstrokeColor%3D%236c8ebf%3B%22%20vertex%3D%221%22%20parent%3D%221%22%3E%3CmxGeometry%20x%3D%2240%22%20y%3D%221700%22%20width%3D%22760%22%20height%3D%22180%22%20as%3D%22geometry%22%2F%3E%3C%2FmxCell%3E%3C%2Froot%3E%3C%2FmxGraphModel%3E&lt;/span&gt;&lt;br&gt;&lt;/div&gt;" style="text;html=1;whiteSpace=wrap;overflow=hidden;rounded=0;fillColor=#dae8fc;strokeColor=#6c8ebf;" vertex="1" parent="WIyWlLk6GJQsqaUBKTNV-1">
          <mxGeometry x="40" y="2130" width="760" height="180" as="geometry" />
        </mxCell>
        <mxCell id="grUhMkJ9xq8ZXCFmjBgn-6" value="&lt;h1 style=&quot;margin-top: 0px;&quot;&gt;Slide n4: admin&lt;/h1&gt;&lt;div style=&quot;font-size: 16px;&quot;&gt;&lt;span style=&quot;color: rgba(0, 0, 0, 0); font-family: monospace; font-size: 0px; text-wrap: nowrap;&quot;&gt;%3CmxGraphModel%3E%3Croot%3E%3CmxCell%20id%3D%220%22%2F%3E%3CmxCell%20id%3D%221%22%20parent%3D%220%22%2F%3E%3CmxCell%20id%3D%222%22%20value%3D%22%26lt%3Bh1%20style%3D%26quot%3Bmargin-top%3A%200px%3B%26quot%3B%26gt%3BSlide%20n1%3A%26lt%3B%2Fh1%26gt%3B%26lt%3Bdiv%20style%3D%26quot%3Bfont-size%3A%2016px%3B%26quot%3B%26gt%3B%26lt%3Bbr%26gt%3B%26lt%3B%2Fdiv%26gt%3B%22%20style%3D%22text%3Bhtml%3D1%3BwhiteSpace%3Dwrap%3Boverflow%3Dhidden%3Brounded%3D0%3BfillColor%3D%23dae8fc%3BstrokeColor%3D%236c8ebf%3B%22%20vertex%3D%221%22%20parent%3D%221%22%3E%3CmxGeometry%20x%3D%2240%22%20y%3D%221700%22%20width%3D%22760%22%20height%3D%22180%22%20as%3D%22geometry%22%2F%3E%3C%2FmxCell%3E%3C%2Froot%3E%3C%2FmxGraphModel%3E&lt;/span&gt;&lt;span style=&quot;color: rgba(0, 0, 0, 0); font-family: monospace; font-size: 0px; text-wrap: nowrap; background-color: initial;&quot;&gt;%3CmxGraphModel%3E%3Croot%3E%3CmxCell%20id%3D%220%22%2F%3E%3CmxCell%20id%3D%221%22%20parent%3D%220%22%2F%3E%3CmxCell%20id%3D%222%22%20value%3D%22%26lt%3Bh1%20style%3D%26quot%3Bmargin-top%3A%200px%3B%26quot%3B%26gt%3BSlide%20n1%3A%26lt%3B%2Fh1%26gt%3B%26lt%3Bdiv%20style%3D%26quot%3Bfont-size%3A%2016px%3B%26quot%3B%26gt%3B%26lt%3Bbr%26gt%3B%26lt%3B%2Fdiv%26gt%3B%22%20style%3D%22text%3Bhtml%3D1%3BwhiteSpace%3Dwrap%3Boverflow%3Dhidden%3Brounded%3D0%3BfillColor%3D%23dae8fc%3BstrokeColor%3D%236c8ebf%3B%22%20vertex%3D%221%22%20parent%3D%221%22%3E%3CmxGeometry%20x%3D%2240%22%20y%3D%221700%22%20width%3D%22760%22%20height%3D%22180%22%20as%3D%22geometry%22%2F%3E%3C%2FmxCell%3E%3C%2Froot%3E%3C%2FmxGraphModel%3E&lt;/span&gt;&lt;br&gt;&lt;/div&gt;" style="text;html=1;whiteSpace=wrap;overflow=hidden;rounded=0;fillColor=#dae8fc;strokeColor=#6c8ebf;" vertex="1" parent="WIyWlLk6GJQsqaUBKTNV-1">
          <mxGeometry x="40" y="2338" width="760" height="180" as="geometry" />
        </mxCell>
      </root>
    </mxGraphModel>
  </diagram>
</mxfile>
